<svg xmlns="http://www.w3.org/2000/svg" viewBox="0 0 256 257">
  <defs>
    <linearGradient id="vite-grad" x1="0%" y1="0%" x2="100%" y2="100%">
      <stop offset="0%" stop-color="#41D1FF"/>
      <stop offset="45%" stop-color="#BD34FE"/>
      <stop offset="100%" stop-color="#FFEA83"/>
    </linearGradient>
    <linearGradient id="vite-grad-2" x1="0%" y1="0%" x2="50%" y2="100%">
      <stop offset="0%" stop-color="#FFEA83"/>
      <stop offset="50%" stop-color="#FFA800"/>
      <stop offset="100%" stop-color="#FF4D4D"/>
    </linearGradient>
  </defs>
  <g fill="none">
    <path d="M37.8 40.87c-.94-2.78 1.86-5.5 4.57-4.36l173.43 71.33c2.74 1.12 3.16 5 .68 6.64l-51.16 33.51a4 4 0 0 1-5.36-.94L37.8 40.87Z" fill="url(#vite-grad)"/>
    <path d="m120.16 221.16-49.6-166.6c-.82-2.75 2.54-4.92 4.75-3.1l118.27 96.65c2 1.68 1.22 4.92-1.28 5.72l-33.2 10.6a3.3 3.3 0 0 0-1.94 1.6l-32.16 54.24c-1.58 2.66-5.58 1.96-6.84-.71Z" fill="url(#vite-grad-2)"/>
  </g>
</svg>
